<?xml version="1.0" encoding="UTF-8" standalone="no"?>
<!DOCTYPE svg PUBLIC "-//W3C//DTD SVG 1.1//EN"
 "http://www.w3.org/Graphics/SVG/1.1/DTD/svg11.dtd">
<!-- Generated by graphviz version 2.40.1 (20161225.0304)
 -->
<!-- Title: %3 Pages: 1 -->
<svg width="277pt" height="188pt"
 viewBox="0.00 0.00 276.66 188.00" xmlns="http://www.w3.org/2000/svg" xmlns:xlink="http://www.w3.org/1999/xlink">
<g id="graph0" class="graph" transform="scale(1 1) rotate(0) translate(4 184)">
<title>%3</title>
<polygon fill="#ffffff" stroke="transparent" points="-4,4 -4,-184 272.662,-184 272.662,4 -4,4"/>
<!-- IslandMapBuilder -->
<g id="node1" class="node">
<title>IslandMapBuilder</title>
<ellipse fill="none" stroke="#000000" cx="74.4551" cy="-90" rx="74.4103" ry="18"/>
<text text-anchor="middle" x="74.4551" y="-85.8" font-family="Times,serif" font-size="14.00" fill="#000000">IslandMapBuilder</text>
</g>
<!-- models -->
<g id="node2" class="node">
<title>models</title>
<ellipse fill="none" stroke="#000000" cx="176.4551" cy="-18" rx="35.806" ry="18"/>
<text text-anchor="middle" x="176.4551" y="-13.8" font-family="Times,serif" font-size="14.00" fill="#000000">models</text>
</g>
<!-- IslandMapBuilder&#45;&gt;models -->
<g id="edge1" class="edge">
<title>IslandMapBuilder&#45;&gt;models</title>
<path fill="none" stroke="#000000" d="M98.6277,-72.937C113.2415,-62.6214 131.9636,-49.4058 147.3827,-38.5217"/>
<polygon fill="#000000" stroke="#000000" points="149.4107,-41.3744 155.562,-32.7481 145.3739,-35.6556 149.4107,-41.3744"/>
</g>
<!-- Main -->
<g id="node3" class="node">
<title>Main</title>
<ellipse fill="none" stroke="#000000" cx="176.4551" cy="-162" rx="28.5497" ry="18"/>
<text text-anchor="middle" x="176.4551" y="-157.8" font-family="Times,serif" font-size="14.00" fill="#000000">Main</text>
</g>
<!-- Main&#45;&gt;IslandMapBuilder -->
<g id="edge3" class="edge">
<title>Main&#45;&gt;IslandMapBuilder</title>
<path fill="none" stroke="#000000" d="M157.2697,-148.4574C143.1166,-138.4669 123.5209,-124.6347 106.944,-112.9334"/>
<polygon fill="#000000" stroke="#000000" points="108.7835,-109.9477 98.5954,-107.0402 104.7467,-115.6665 108.7835,-109.9477"/>
</g>
<!-- Main&#45;&gt;models -->
<g id="edge2" class="edge">
<title>Main&#45;&gt;models</title>
<path fill="none" stroke="#000000" d="M176.4551,-143.7623C176.4551,-119.201 176.4551,-75.2474 176.4551,-46.3541"/>
<polygon fill="#000000" stroke="#000000" points="179.9552,-46.0896 176.4551,-36.0896 172.9552,-46.0897 179.9552,-46.0896"/>
</g>
<!-- Parser -->
<g id="node4" class="node">
<title>Parser</title>
<ellipse fill="none" stroke="#000000" cx="236.4551" cy="-90" rx="32.415" ry="18"/>
<text text-anchor="middle" x="236.4551" y="-85.8" font-family="Times,serif" font-size="14.00" fill="#000000">Parser</text>
</g>
<!-- Main&#45;&gt;Parser -->
<g id="edge4" class="edge">
<title>Main&#45;&gt;Parser</title>
<path fill="none" stroke="#000000" d="M189.7711,-146.0209C197.5078,-136.7368 207.4151,-124.848 216.1109,-114.413"/>
<polygon fill="#000000" stroke="#000000" points="219.0473,-116.3565 222.7604,-106.4336 213.6698,-111.8752 219.0473,-116.3565"/>
</g>
<!-- Parser&#45;&gt;models -->
<g id="edge5" class="edge">
<title>Parser&#45;&gt;models</title>
<path fill="none" stroke="#000000" d="M222.8402,-73.6621C215.2012,-64.4953 205.5177,-52.8751 196.9766,-42.6257"/>
<polygon fill="#000000" stroke="#000000" points="199.5232,-40.2145 190.4326,-34.7729 194.1457,-44.6958 199.5232,-40.2145"/>
</g>
</g>
</svg>
